<svg id="Layer_1" data-name="Layer 1" xmlns="http://www.w3.org/2000/svg" viewBox="0 0 588 159"><defs><style>.cls-1{fill:#0079ff;}.cls-2{fill:#00073d;}</style></defs><polygon class="cls-1" points="475.58 124.1 491.03 97.47 485.03 97.47 469.57 124.1 475.58 124.1"/><polygon class="cls-1" points="497.58 124.1 513.03 97.47 507.03 97.47 491.57 124.1 497.58 124.1"/><path class="cls-1" d="M448.3,102.41l-19.91,8.38,19.91,8.31v4.81l-28.88-12.33V110L448.3,97.67Z"/><path class="cls-1" d="M563.19,110v1.58l-29,12.33V119.1l19.92-8.31-19.92-8.38V97.67Z"/><path class="cls-2" d="M102.58,29.05a34.82,34.82,0,0,1,12.58,13.23L101.78,52.61q-7.43-11.05-18.33-11A14.41,14.41,0,0,0,75,44a7.92,7.92,0,0,0-3.42,6.91,7.66,7.66,0,0,0,2.54,6,36.27,36.27,0,0,0,8.66,5l10.9,4.8q12.08,5.37,17.89,11.85t5.82,16.22q0,13.08-9.45,20.94t-24.15,7.85a41.67,41.67,0,0,1-37.08-21.23L60.19,92.17q10,14,23.55,14,6.41,0,10-2.84a9.34,9.34,0,0,0,3.64-7.78,8.4,8.4,0,0,0-1.68-5.16A11.9,11.9,0,0,0,92,86.93c-1.4-.77-3.66-1.89-6.76-3.34L74.87,78.93Q63.68,73.85,57.64,67.3a22.76,22.76,0,0,1-6-16q0-12.21,9-19.7t22.83-7.49Q94.51,24.11,102.58,29.05Z"/><path class="cls-2" d="M179.15,53A34.4,34.4,0,0,1,191.8,66L178.13,76.61q-7-10.47-17.31-10.47a17.91,17.91,0,0,0-13.59,5.59,19.62,19.62,0,0,0-5.31,14A19.78,19.78,0,0,0,147.23,100a17.92,17.92,0,0,0,13.59,5.6q10,0,17.31-10.33l13.67,10.47a34.69,34.69,0,0,1-12.72,13.09,35.61,35.61,0,0,1-18.55,4.8,37.68,37.68,0,0,1-27.34-10.91A36.09,36.09,0,0,1,122,85.77a35.71,35.71,0,0,1,11.2-26.69,37.86,37.86,0,0,1,27.34-10.83A35.92,35.92,0,0,1,179.15,53Z"/><path class="cls-2" d="M243.28,49.85v17.3h-5.23q-8.88,0-14.11,4.73t-5.23,14v35.93H199.07v-72h18v8.72A23.72,23.72,0,0,1,236.89,49,21.27,21.27,0,0,1,243.28,49.85Z"/><path class="cls-2" d="M266.92,14.94a11.51,11.51,0,0,1,3.71,8.73,11.34,11.34,0,0,1-3.71,8.58A12.6,12.6,0,0,1,258,35.74a12.33,12.33,0,0,1-8.87-3.49,11.45,11.45,0,0,1-3.63-8.58,11.62,11.62,0,0,1,3.63-8.73A12.37,12.37,0,0,1,258,11.45,12.64,12.64,0,0,1,266.92,14.94Zm.94,106.9H248.23v-72h19.63Z"/><path class="cls-2" d="M346.32,58.86q9.82,10.62,9.82,26.91t-9.82,27.05q-9.81,10.75-25.08,10.76-13.53,0-21.53-8.72V148H280.08V49.85h18v9q7.71-10.61,23.13-10.61Q336.51,48.25,346.32,58.86Zm-15.49,41.38q5.39-5.46,5.39-14.33t-5.31-14.47A17.83,17.83,0,0,0,317.6,66a18.12,18.12,0,0,0-12.8,5q-5.37,5-5.38,14.76,0,9.6,5.31,14.76a18.71,18.71,0,0,0,26.1-.29Z"/><polygon class="cls-2" points="368.21 121.58 387.85 121.58 387.85 66.43 408.21 66.43 408.21 49.85 387.85 49.85 387.85 31.67 368.21 31.67 368.21 49.85 356.87 49.85 356.87 66.43 368.21 66.43 368.21 121.58"/><path class="cls-1" d="M449.64,55.76q6.41,6,6.4,15.67a20.8,20.8,0,0,1-6.4,15.71q-6.4,6.14-17.29,6.13H419.42V49.73h12.93Q443.24,49.73,449.64,55.76Zm-25.07-1.42V88.66h7.72q8.5,0,13.46-4.85a16.6,16.6,0,0,0,4.95-12.38,16.37,16.37,0,0,0-4.92-12.37q-4.92-4.71-13.49-4.72Z"/><path class="cls-1" d="M489.82,54.34H467.06V67.67h17.42v4.62H467.06V88.66h23.55v4.61h-28.7V49.73h27.91Z"/><path class="cls-1" d="M516.51,51.05a16,16,0,0,1,5.71,5.34l-3.77,2.84a11.34,11.34,0,0,0-10-5.48A9,9,0,0,0,503,55.4a5.47,5.47,0,0,0-2.25,4.69,6.34,6.34,0,0,0,.46,2.5,5.26,5.26,0,0,0,1.62,2A13.58,13.58,0,0,0,504.93,66c.61.33,1.56.8,2.84,1.42l4.81,2.31a24.47,24.47,0,0,1,7.66,5.21,10,10,0,0,1,2.5,6.93,11,11,0,0,1-4,8.77A15,15,0,0,1,508.69,94a17.71,17.71,0,0,1-9.27-2.51,19.24,19.24,0,0,1-6.76-6.86l3.82-2.84q4.89,7.45,12.14,7.46a9.75,9.75,0,0,0,6.34-2A6.45,6.45,0,0,0,517.4,82a5.48,5.48,0,0,0-1.68-4.29,24.31,24.31,0,0,0-5.58-3.36L505.26,72A26.5,26.5,0,0,1,498,67.15a9.3,9.3,0,0,1-2.6-6.8,10.11,10.11,0,0,1,3.82-8.22A14.24,14.24,0,0,1,508.56,49,15.75,15.75,0,0,1,516.51,51.05Z"/><path class="cls-1" d="M529.47,49.73h5.15V93.27h-5.15Zm33.72,43.54h-6.53L535.21,69.92l19.6-20.19h6.6L541.88,69.92Z"/></svg>